<svg width="94" height="104" viewBox="0 0 94 104" fill="none" xmlns="http://www.w3.org/2000/svg">
<g filter="url(#filter0_d)">
<rect width="86" height="96" rx="16" transform="matrix(1 0 0 -1 4 96)" fill="#082971"/>
<rect x="0.5" y="-0.5" width="85" height="95" rx="15.5" transform="matrix(1 0 0 -1 4 95)" stroke="#082971"/>
</g>
<rect x="16.5" y="13.5" width="61" height="18" rx="5.5" fill="white" stroke="white"/>
<rect x="16.5" y="44.5" width="18" height="16" rx="3.5" fill="white" stroke="white"/>
<rect x="37.5" y="44.5" width="18" height="16" rx="3.5" fill="white" stroke="white"/>
<rect x="37.5" y="65.5" width="18" height="16" rx="3.5" fill="white" stroke="white"/>
<rect x="16.5" y="65.5" width="18" height="16" rx="3.5" fill="white" stroke="white"/>
<rect x="59.5" y="65.5" width="18" height="16" rx="3.5" fill="white" stroke="white"/>
<rect x="59.5" y="44.5" width="18" height="16" rx="3.5" fill="white" stroke="white"/>
<defs>
<filter id="filter0_d" x="0" y="0" width="94" height="104" filterUnits="userSpaceOnUse" color-interpolation-filters="sRGB">
<feFlood flood-opacity="0" result="BackgroundImageFix"/>
<feColorMatrix in="SourceAlpha" type="matrix" values="0 0 0 0 0 0 0 0 0 0 0 0 0 0 0 0 0 0 127 0"/>
<feOffset dy="4"/>
<feGaussianBlur stdDeviation="2"/>
<feColorMatrix type="matrix" values="0 0 0 0 0 0 0 0 0 0 0 0 0 0 0 0 0 0 0.25 0"/>
<feBlend mode="normal" in2="BackgroundImageFix" result="effect1_dropShadow"/>
<feBlend mode="normal" in="SourceGraphic" in2="effect1_dropShadow" result="shape"/>
</filter>
</defs>
</svg>
